<svg width="1305" height="1847" viewBox="0 0 1305 1847" fill="none" xmlns="http://www.w3.org/2000/svg">
<g clip-path="url(#clip0_191_25)">
<rect width="1305" height="1847" fill="url(#paint0_linear_191_25)"/>
<g filter="url(#filter0_f_191_25)">
<ellipse cx="653" cy="924" rx="517" ry="349" fill="url(#paint1_linear_191_25)" fill-opacity="0.75"/>
</g>
<path d="M232 878.908V854.2H438.712V976H393.298V878.908H303.34V976H257.926V878.908H232ZM457.867 976L500.323 878.908H478.747V854.2H599.677L652.573 976H605.593L563.137 878.908H547.477L505.021 976H457.867ZM669.957 976V854.2H850.743V976H669.957ZM715.371 951.292H805.329V878.908H715.371V951.292ZM873.408 902.92V854.2H1068.11V902.92L1022.7 896.656V878.908H993.468V976H948.054V878.908H918.822V896.656L873.408 902.92Z" fill="white"/>
<path fill-rule="evenodd" clip-rule="evenodd" d="M904.977 836.193C907.032 836.18 909.045 836.728 910.764 837.766C912.483 838.804 913.833 840.287 914.644 842.03C916.51 846.08 919.728 849.461 923.809 851.724C931.414 855.941 945.119 855.941 952.738 851.724C956.819 849.46 960.025 846.068 961.903 842.03C962.71 840.298 964.049 838.823 965.755 837.786C967.46 836.749 969.458 836.196 971.5 836.196C973.542 836.196 975.54 836.749 977.245 837.786C978.951 838.823 980.29 840.298 981.097 842.03C982.977 846.08 986.181 849.461 990.262 851.724C997.867 855.941 1011.59 855.941 1019.19 851.724C1023.27 849.461 1026.49 846.067 1028.36 842.03C1029.17 840.287 1030.51 838.803 1032.23 837.764C1033.95 836.725 1035.96 836.176 1038.02 836.187C1040.07 836.198 1042.08 836.768 1043.78 837.826C1045.49 838.883 1046.82 840.381 1047.61 842.133C1048.79 844.764 1050.6 847.119 1052.9 849.025C1055.19 850.931 1057.92 852.34 1060.88 853.151C1062.19 853.512 1063.42 854.109 1064.49 854.908C1065.55 855.706 1066.43 856.69 1067.09 857.804C1067.74 858.918 1068.15 860.14 1068.29 861.4C1068.43 862.659 1068.31 863.933 1067.91 865.147C1067.52 866.36 1066.88 867.491 1066.01 868.475C1065.15 869.458 1064.08 870.274 1062.87 870.877C1061.67 871.48 1060.34 871.858 1058.98 871.988C1057.61 872.119 1056.23 872.001 1054.92 871.639C1048.57 869.897 1042.75 866.78 1037.97 862.549C1033.6 866.481 1028.38 869.523 1022.65 871.479C1016.93 873.434 1010.83 874.26 1004.73 873.902C998.642 874.265 992.535 873.442 986.81 871.487C981.084 869.531 975.868 866.486 971.5 862.549C967.13 866.484 961.914 869.528 956.189 871.483C950.464 873.439 944.358 874.263 938.267 873.902C932.174 874.265 926.068 873.442 920.342 871.487C914.617 869.531 909.401 866.486 905.033 862.549C900.246 866.78 894.435 869.897 888.082 871.639C886.767 872.001 885.387 872.119 884.023 871.988C882.658 871.858 881.334 871.48 880.127 870.877C878.921 870.274 877.854 869.458 876.99 868.475C876.125 867.491 875.478 866.36 875.087 865.147C874.695 863.933 874.567 862.659 874.708 861.4C874.85 860.14 875.259 858.918 875.912 857.804C876.565 856.69 877.45 855.706 878.515 854.908C879.58 854.109 880.805 853.512 882.12 853.151C885.08 852.339 887.807 850.929 890.103 849.024C892.399 847.118 894.207 844.764 895.394 842.133C896.183 840.383 897.512 838.886 899.216 837.83C900.921 836.774 902.924 836.204 904.977 836.193Z" fill="white"/>
<path fill-rule="evenodd" clip-rule="evenodd" d="M992.393 695C949.075 695 932.528 723.902 929.812 738.945C929.61 740.07 929.735 741.224 930.176 742.289C930.616 743.354 931.356 744.292 932.318 745.006C933.281 745.72 934.432 746.186 935.653 746.354C936.875 746.523 938.123 746.388 939.269 745.965C947.097 743.072 953.17 742.57 957.794 743.316C962.321 744.049 965.956 746.068 968.937 749.115C975.135 755.479 978.464 766.471 978.464 778.57C978.464 793.689 961.402 810.712 936.679 810.712C924.742 810.712 912.708 804.888 908.264 795.322C907.726 794.158 906.828 793.165 905.681 792.47C904.535 791.775 903.192 791.408 901.82 791.415C900.448 791.422 899.11 791.802 897.971 792.509C896.833 793.215 895.946 794.217 895.422 795.387C892.497 801.892 886.299 807.048 878.986 809.053C877.547 809.447 876.284 810.259 875.386 811.369C874.487 812.478 874.001 813.826 874 815.212V838.817C875.017 838.406 876.075 838.046 877.162 837.75C877.644 837.617 878.088 837.386 878.461 837.075C878.835 836.764 879.128 836.379 879.321 835.95C881.424 831.282 884.971 827.289 889.519 824.471C894.067 821.654 899.414 820.136 904.892 820.109C910.369 820.082 915.734 821.545 920.315 824.317C924.896 827.089 928.49 831.046 930.647 835.693C931.08 836.629 931.82 837.417 932.765 837.943C932.792 837.956 933.28 838.2 934.366 838.431C936.934 838.967 939.599 838.967 942.166 838.431C942.721 838.333 943.259 838.169 943.768 837.943C944.715 837.422 945.461 836.639 945.899 835.706C948.048 831.083 951.619 827.143 956.169 824.374C960.72 821.605 966.05 820.13 971.5 820.13C976.95 820.13 982.28 821.605 986.831 824.374C991.381 827.143 994.952 831.083 997.101 835.706C997.539 836.639 998.285 837.422 999.232 837.943C999.26 837.956 999.747 838.2 1000.83 838.431C1003.4 838.967 1006.07 838.967 1008.63 838.431C1009.72 838.2 1010.21 837.956 1010.24 837.943C1011.18 837.42 1011.92 836.638 1012.35 835.706C1014.51 831.059 1018.1 827.102 1022.69 824.33C1027.27 821.558 1032.63 820.094 1038.11 820.122C1043.59 820.149 1048.93 821.667 1053.48 824.484C1058.03 827.302 1061.58 831.294 1063.68 835.963C1063.87 836.393 1064.16 836.777 1064.54 837.089C1064.91 837.4 1065.36 837.631 1065.84 837.763C1066.92 838.046 1067.98 838.406 1069 838.817V739.999C1069 738.999 1068.75 738.013 1068.26 737.119C1060.57 722.938 1034.92 695 992.393 695ZM1067.12 866.935C1067.85 865.674 1068.26 864.28 1068.33 862.853C1068.4 861.427 1068.13 860.003 1067.53 858.686C1066.94 857.368 1066.03 856.189 1064.88 855.235C1063.73 854.28 1062.36 853.573 1060.88 853.165C1057.92 852.352 1055.19 850.94 1052.89 849.032C1050.6 847.124 1048.79 844.768 1047.61 842.134C1046.82 840.383 1045.49 838.885 1043.78 837.827C1042.08 836.77 1040.07 836.2 1038.02 836.189C1035.96 836.178 1033.95 836.726 1032.23 837.765C1030.51 838.805 1029.17 840.288 1028.36 842.031C1026.48 846.072 1023.28 849.464 1019.19 851.725C1011.59 855.942 997.881 855.942 990.262 851.725C986.179 849.464 982.972 846.072 981.097 842.031C980.29 840.3 978.951 838.824 977.245 837.787C975.54 836.75 973.542 836.198 971.5 836.198C969.458 836.198 967.46 836.75 965.755 837.787C964.049 838.824 962.71 840.3 961.903 842.031C960.028 846.072 956.821 849.464 952.738 851.725C945.133 855.942 931.414 855.942 923.809 851.725C919.725 849.464 916.519 846.072 914.644 842.031C913.834 840.288 912.486 838.805 910.767 837.765C909.049 836.726 907.036 836.178 904.982 836.189C902.928 836.2 900.922 836.77 899.217 837.827C897.512 838.885 896.182 840.383 895.394 842.134C894.207 844.765 892.399 847.119 890.103 849.025C887.807 850.931 885.08 852.341 882.12 853.153C880.805 853.514 879.58 854.111 878.515 854.909C877.45 855.707 876.565 856.692 875.912 857.806C875.259 858.919 874.85 860.141 874.708 861.401C874.566 862.661 874.695 863.934 875.086 865.148C875.478 866.362 876.124 867.493 876.989 868.476C877.854 869.459 878.921 870.276 880.127 870.879C881.334 871.482 882.658 871.859 884.022 871.99C885.387 872.121 886.767 872.002 888.082 871.641C894.435 869.898 900.246 866.782 905.033 862.551C907.822 865.071 910.965 867.233 914.379 868.979C921.667 872.698 929.956 874.412 938.266 873.916C946.578 874.409 954.868 872.691 962.154 868.966L963.477 868.259C966.383 866.651 969.075 864.735 971.5 862.551C974.285 865.069 977.424 867.231 980.832 868.979C988.12 872.698 996.424 874.412 1004.73 873.916C1013.04 874.406 1021.33 872.688 1028.61 868.966C1032.02 867.22 1035.16 865.058 1037.95 862.538L1038.93 863.361C1043.77 867.369 1049.56 870.275 1055.84 871.846C1058.04 872.254 1060.33 871.994 1062.36 871.107C1064.39 870.221 1066.06 868.753 1067.12 866.922V866.935Z" fill="white"/>
</g>
<defs>
<filter id="filter0_f_191_25" x="-21.3" y="417.7" width="1348.6" height="1012.6" filterUnits="userSpaceOnUse" color-interpolation-filters="sRGB">
<feFlood flood-opacity="0" result="BackgroundImageFix"/>
<feBlend mode="normal" in="SourceGraphic" in2="BackgroundImageFix" result="shape"/>
<feGaussianBlur stdDeviation="78.65" result="effect1_foregroundBlur_191_25"/>
</filter>
<linearGradient id="paint0_linear_191_25" x1="652.5" y1="-1.05284e-08" x2="653" y2="2639.5" gradientUnits="userSpaceOnUse">
<stop stop-color="#2F5484"/>
<stop offset="1" stop-color="#487B8E"/>
</linearGradient>
<linearGradient id="paint1_linear_191_25" x1="653" y1="575" x2="653" y2="1273" gradientUnits="userSpaceOnUse">
<stop stop-color="#44738B"/>
<stop offset="1" stop-color="#18AD42"/>
</linearGradient>
<clipPath id="clip0_191_25">
<rect width="1305" height="1847" fill="white"/>
</clipPath>
</defs>
</svg>
